<svg width="48" height="48" viewBox="0 0 48 48" fill="none" xmlns="http://www.w3.org/2000/svg">
<path d="M24 0C10.7323 0 0 10.7592 0 23.9826C0 37.2408 10.7323 48 24 48C37.2677 48 47.9999 37.2408 47.9999 23.9826C48.0346 10.7592 37.2677 0 24 0ZM20.8393 9.54447C22.2286 9.54447 23.3053 10.6551 23.3053 12.0087C23.3053 13.397 22.1939 14.5076 20.8393 14.5076C19.4848 14.5076 18.3733 13.397 18.3733 12.0087C18.3386 10.6551 19.4848 9.54447 20.8393 9.54447ZM12.7467 11.0022C13.7192 11.0022 14.5181 11.8004 14.5181 12.7722C14.5181 13.744 13.7192 14.5423 12.7467 14.5423C11.7742 14.5423 10.9754 13.7787 10.9754 12.7722C11.0101 11.8004 11.7742 11.0022 12.7467 11.0022ZM14.3097 28.0781C14.2402 29.154 13.6845 30.0564 12.7815 30.0564C11.809 30.0564 11.288 29.1887 11.2185 28.0781L10.3849 17.8048C10.3155 16.7288 11.67 15.8265 12.7467 15.8265C13.8234 15.8265 15.178 16.7288 15.1085 17.8048L14.3097 28.0781ZM22.8885 32.243C22.8191 33.7007 22.0202 35.0542 20.8046 35.0542C19.5195 35.0542 18.8249 33.7007 18.7207 32.243L17.6092 18.4642C17.505 17.0065 19.3111 15.8265 20.8046 15.8265C22.2633 15.8265 24.1042 17.0412 23.9652 18.4642L22.8885 32.243ZM30.8075 8.2256C32.5441 8.2256 33.9334 9.64859 33.9334 11.3839C33.9334 13.154 32.5441 14.5423 30.8075 14.5423C29.0709 14.5423 27.6468 13.154 27.6468 11.3839C27.6816 9.61388 29.0709 8.2256 30.8075 8.2256ZM33.586 37.7961C33.4818 39.7397 32.4399 41.3015 30.8422 41.3015C29.1403 41.3015 28.2026 39.7397 28.0984 37.7961L26.6396 19.3319C26.5007 17.423 28.8972 15.8265 30.8422 15.8265C32.7525 15.8265 35.1837 17.423 35.0448 19.3319L33.586 37.7961Z" fill="#DE162A"/>
</svg>
