<svg width="24" height="24" viewBox="0 0 24 24" fill="none" xmlns="http://www.w3.org/2000/svg">
<path fill-rule="evenodd" clip-rule="evenodd" d="M10.2571 5.09898C11.0221 3.73898 12.9791 3.73898 13.7431 5.09898L19.3231 15.019C20.0731 16.353 19.1101 17.999 17.5811 17.999H6.42009C4.89009 17.999 3.92709 16.353 4.67709 15.019L10.2571 5.09898ZM13.0001 15C13.0001 15.2652 12.8947 15.5196 12.7072 15.7071C12.5197 15.8946 12.2653 16 12.0001 16C11.7349 16 11.4805 15.8946 11.293 15.7071C11.1054 15.5196 11.0001 15.2652 11.0001 15C11.0001 14.7348 11.1054 14.4804 11.293 14.2929C11.4805 14.1053 11.7349 14 12.0001 14C12.2653 14 12.5197 14.1053 12.7072 14.2929C12.8947 14.4804 13.0001 14.7348 13.0001 15ZM12.0001 6.99998C11.7349 6.99998 11.4805 7.10534 11.293 7.29287C11.1054 7.48041 11.0001 7.73476 11.0001 7.99998V11C11.0001 11.2652 11.1054 11.5195 11.293 11.7071C11.4805 11.8946 11.7349 12 12.0001 12C12.2653 12 12.5197 11.8946 12.7072 11.7071C12.8947 11.5195 13.0001 11.2652 13.0001 11V7.99998C13.0001 7.73476 12.8947 7.48041 12.7072 7.29287C12.5197 7.10534 12.2653 6.99998 12.0001 6.99998Z" fill="#84919A"/>
</svg>
