<svg width="14" height="14" viewBox="0 0 14 14" fill="none" xmlns="http://www.w3.org/2000/svg">
<g clip-path="url(#clip0_4_13)">
<path fill-rule="evenodd" clip-rule="evenodd" d="M4.98807 0.82214C5.30063 0.509579 5.72456 0.333984 6.16658 0.333984H7.83325C8.27528 0.333984 8.6992 0.509579 9.01176 0.82214C9.32432 1.1347 9.49992 1.55862 9.49992 2.00065V4.50065H11.9999C12.4419 4.50065 12.8659 4.67625 13.1784 4.98881C13.491 5.30137 13.6666 5.72529 13.6666 6.16732V7.83398C13.6666 8.27601 13.491 8.69993 13.1784 9.0125C12.8659 9.32506 12.4419 9.50065 11.9999 9.50065H9.49992V12.0007C9.49992 12.4427 9.32432 12.8666 9.01176 13.1792C8.6992 13.4917 8.27528 13.6673 7.83325 13.6673H6.16658C5.72456 13.6673 5.30063 13.4917 4.98807 13.1792C4.67551 12.8666 4.49992 12.4427 4.49992 12.0007V9.50065H1.99992C1.55789 9.50065 1.13397 9.32506 0.821407 9.0125C0.508847 8.69993 0.333252 8.27601 0.333252 7.83398V6.16732C0.333252 5.72529 0.508847 5.30137 0.821407 4.98881C1.13397 4.67625 1.55789 4.50065 1.99992 4.50065H4.49992V2.00065C4.49992 1.55862 4.67551 1.1347 4.98807 0.82214Z" fill="#F2271C"/>
</g>
<defs>
<clipPath id="clip0_4_13">
<rect width="14" height="14" fill="white"/>
</clipPath>
</defs>
</svg>
