<svg width="40" height="40" viewBox="0 0 40 40" fill="none" xmlns="http://www.w3.org/2000/svg">
<g clip-path="url(#clip0_3_2)">
<path d="M40 20C40 8.9543 31.0457 0 20 0C8.9543 0 0 8.9543 0 20C0 31.0457 8.9543 40 20 40C31.0457 40 40 31.0457 40 20Z" fill="#EEF0F2"/>
<path fill-rule="evenodd" clip-rule="evenodd" d="M28 20C28 22.1217 27.1571 24.1566 25.6569 25.6569C24.1566 27.1571 22.1217 28 20 28C17.8783 28 15.8434 27.1571 14.3431 25.6569C12.8429 24.1566 12 22.1217 12 20C12 17.8783 12.8429 15.8434 14.3431 14.3431C15.8434 12.8429 17.8783 12 20 12C22.1217 12 24.1566 12.8429 25.6569 14.3431C27.1571 15.8434 28 17.8783 28 20ZM21 16C21 16.2652 20.8946 16.5196 20.7071 16.7071C20.5196 16.8946 20.2652 17 20 17C19.7348 17 19.4804 16.8946 19.2929 16.7071C19.1054 16.5196 19 16.2652 19 16C19 15.7348 19.1054 15.4804 19.2929 15.2929C19.4804 15.1054 19.7348 15 20 15C20.2652 15 20.5196 15.1054 20.7071 15.2929C20.8946 15.4804 21 15.7348 21 16ZM19 19C18.7348 19 18.4804 19.1054 18.2929 19.2929C18.1054 19.4804 18 19.7348 18 20C18 20.2652 18.1054 20.5196 18.2929 20.7071C18.4804 20.8946 18.7348 21 19 21V24C19 24.2652 19.1054 24.5196 19.2929 24.7071C19.4804 24.8946 19.7348 25 20 25H21C21.2652 25 21.5196 24.8946 21.7071 24.7071C21.8946 24.5196 22 24.2652 22 24C22 23.7348 21.8946 23.4804 21.7071 23.2929C21.5196 23.1054 21.2652 23 21 23V20C21 19.7348 20.8946 19.4804 20.7071 19.2929C20.5196 19.1054 20.2652 19 20 19H19Z" fill="#84919A"/>
</g>
<defs>
<clipPath id="clip0_3_2">
<rect width="40" height="40" fill="white"/>
</clipPath>
</defs>
</svg>
