<svg width="6" height="10" viewBox="0 0 6 10" fill="none" xmlns="http://www.w3.org/2000/svg">
<path fill-rule="evenodd" clip-rule="evenodd" d="M5.707 0.293026C5.8945 0.480556 5.9998 0.734866 5.9998 1.00003C5.9998 1.26519 5.8945 1.5195 5.707 1.70703L2.414 5L5.707 8.293C5.8892 8.4816 5.99 8.7342 5.9877 8.9964C5.9854 9.2586 5.8803 9.5094 5.6948 9.6948C5.5094 9.8803 5.2586 9.9854 4.9964 9.9877C4.7342 9.99 4.4816 9.8892 4.293 9.707L0.293034 5.707C0.105564 5.5195 0.000244141 5.2652 0.000244141 5C0.000244141 4.7349 0.105564 4.4806 0.293034 4.293L4.293 0.293026C4.4806 0.105556 4.7349 0.000236511 5 0.000236511C5.2652 0.000236511 5.5195 0.105556 5.707 0.293026Z" fill="#252C32"/>
</svg>
