<svg width="19" height="18" viewBox="0 0 19 18" fill="none" xmlns="http://www.w3.org/2000/svg">
<path d="M15.3101 18H3.72785C1.94304 18 0.5 16.557 0.5 14.8101V3.22785C0.5 1.44304 1.94304 0 3.72785 0H15.3101C17.0949 0 18.538 1.44304 18.538 3.22785V14.8101C18.5 16.557 17.057 18 15.3101 18Z" fill="#117BB8"/>
<path d="M7.29753 6.9873H5.43677V13.0253H7.29753V6.9873Z" fill="white"/>
<path d="M6.34809 6.22792C6.95569 6.22792 7.44936 5.73425 7.44936 5.12666C7.44936 4.51906 6.95569 4.02539 6.34809 4.02539C5.7405 4.02539 5.24683 4.51906 5.24683 5.12666C5.24683 5.73425 5.7405 6.22792 6.34809 6.22792Z" fill="white"/>
<path d="M10.2594 9.87391C10.2594 9.03847 10.6392 8.50682 11.3987 8.50682C12.0822 8.50682 12.424 9.00049 12.424 9.87391C12.424 10.7473 12.424 13.0258 12.424 13.0258H14.2847C14.2847 13.0258 14.2847 10.8233 14.2847 9.22834C14.2847 7.63341 13.3733 6.83594 12.0822 6.83594C10.7911 6.83594 10.2594 7.82328 10.2594 7.82328V7.02581H8.47461V13.0638H10.2594C10.2594 13.0258 10.2594 10.7853 10.2594 9.87391Z" fill="white"/>
</svg>
