<svg width="24" height="24" viewBox="0 0 24 24" fill="none" xmlns="http://www.w3.org/2000/svg">
<path d="M11 6.80401C9.90971 6.27317 8.71265 5.99819 7.5 6.00001C6.245 6.00001 5.057 6.29001 4 6.80401V16.804C5.0903 16.2732 6.28736 15.9982 7.5 16C9.169 16 10.718 16.51 12 17.385C13.3261 16.4802 14.8947 15.9975 16.5 16C17.755 16 18.943 16.29 20 16.804V6.80401C18.9097 6.27317 17.7126 5.99819 16.5 6.00001C15.245 6.00001 14.057 6.29001 13 6.80401V14C13 14.2652 12.8946 14.5196 12.7071 14.7071C12.5196 14.8947 12.2652 15 12 15C11.7348 15 11.4804 14.8947 11.2929 14.7071C11.1054 14.5196 11 14.2652 11 14V6.80401Z" fill="#84919A"/>
</svg>
