<svg width="24" height="24" viewBox="0 0 24 24" fill="none" xmlns="http://www.w3.org/2000/svg">
<g clip-path="url(#clip0_3_4)">
<path fill-rule="evenodd" clip-rule="evenodd" d="M11.1974 5.04812C12.4354 4.75027 13.3334 5.88754 13.3334 7.01198V16.988C13.3334 18.1125 12.4354 19.2497 11.1974 18.9519C8.22269 18.2364 6 15.3961 6 12C6 8.60387 8.22269 5.76355 11.1974 5.04812V5.04812ZM14.8621 9.35849C14.9871 9.2249 15.1567 9.14985 15.3334 9.14985C15.5102 9.14985 15.6798 9.2249 15.8048 9.35849L17.8048 11.4962C17.9298 11.6298 18 11.8111 18 12C18 12.1889 17.9298 12.3702 17.8048 12.5038L15.8048 14.6415C15.679 14.7713 15.5106 14.8431 15.3358 14.8415C15.161 14.8399 14.9938 14.7649 14.8702 14.6328C14.7466 14.5007 14.6765 14.322 14.675 14.1352C14.6735 13.9483 14.7407 13.7683 14.8621 13.6339L15.7241 12.7126H10C9.82323 12.7126 9.65366 12.6375 9.52864 12.5039C9.40361 12.3702 9.33337 12.189 9.33337 12C9.33337 11.811 9.40361 11.6298 9.52864 11.4961C9.65366 11.3625 9.82323 11.2874 10 11.2874H15.7241L14.8621 10.3661C14.7371 10.2324 14.6669 10.0512 14.6669 9.86228C14.6669 9.67333 14.7371 9.49211 14.8621 9.35849V9.35849Z" fill="#84919A"/>
</g>
<defs>
<clipPath id="clip0_3_4">
<rect width="24" height="24" fill="white"/>
</clipPath>
</defs>
</svg>
