<svg width="14" height="14" viewBox="0 0 14 14" fill="none" xmlns="http://www.w3.org/2000/svg">
<g clip-path="url(#clip0_4_15)">
<path fill-rule="evenodd" clip-rule="evenodd" d="M3.66658 2.83398V3.66732H1.99992C1.55789 3.66732 1.13397 3.84291 0.821407 4.15547C0.508847 4.46803 0.333252 4.89196 0.333252 5.33398V8.30898C2.46689 9.09963 4.7245 9.50318 6.99992 9.50065C9.27533 9.50314 11.5329 9.0996 13.6666 8.30898V5.33398C13.6666 4.89196 13.491 4.46803 13.1784 4.15547C12.8659 3.84291 12.4419 3.66732 11.9999 3.66732H10.3333V2.83398C10.3333 2.17094 10.0699 1.53506 9.60102 1.06622C9.13218 0.597377 8.49629 0.333984 7.83325 0.333984H6.16658C5.50354 0.333984 4.86766 0.597377 4.39882 1.06622C3.92998 1.53506 3.66658 2.17094 3.66658 2.83398ZM5.57733 2.24473C5.42105 2.40101 5.33325 2.61297 5.33325 2.83398V3.66732H8.66658V2.83398C8.66658 2.61297 8.57879 2.40101 8.42251 2.24473C8.26623 2.08845 8.05427 2.00065 7.83325 2.00065H6.16658C5.94557 2.00065 5.73361 2.08845 5.57733 2.24473ZM6.41066 6.4114C6.25438 6.56768 6.16658 6.77964 6.16658 7.00065C6.16658 7.22166 6.25438 7.43363 6.41066 7.58991C6.56694 7.74619 6.7789 7.83398 6.99992 7.83398H7.00825C7.22927 7.83398 7.44123 7.74619 7.59751 7.58991C7.75379 7.43363 7.84158 7.22166 7.84158 7.00065C7.84158 6.77964 7.75379 6.56768 7.59751 6.4114C7.44123 6.25512 7.22927 6.16732 7.00825 6.16732H6.99992C6.7789 6.16732 6.56694 6.25512 6.41066 6.4114Z" fill="#22C348"/>
<path d="M0.333252 12.0007V10.0773C2.42742 10.784 4.66992 11.1673 6.99992 11.1673C9.26667 11.1695 11.5186 10.8013 13.6666 10.0773V12.0007C13.6666 12.4427 13.491 12.8666 13.1784 13.1792C12.8659 13.4917 12.4419 13.6673 11.9999 13.6673H1.99992C1.55789 13.6673 1.13397 13.4917 0.821407 13.1792C0.508847 12.8666 0.333252 12.4427 0.333252 12.0007Z" fill="#22C348"/>
</g>
<defs>
<clipPath id="clip0_4_15">
<rect width="14" height="14" fill="white"/>
</clipPath>
</defs>
</svg>
