<svg width="16" height="13" viewBox="0 0 16 13" fill="none" xmlns="http://www.w3.org/2000/svg">
<g clip-path="url(#clip0_4_24)">
<path fill-rule="evenodd" clip-rule="evenodd" d="M1.6 7.3332V9.7332H0.8C0.587827 9.7332 0.384344 9.81749 0.234315 9.96752C0.0842854 10.1175 0 10.321 0 10.5332V12.1332C0 12.3454 0.0842854 12.5489 0.234315 12.6989C0.384344 12.8489 0.587827 12.9332 0.8 12.9332H15.2C15.4122 12.9332 15.6157 12.8489 15.7657 12.6989C15.9157 12.5489 16 12.3454 16 12.1332V10.5332C16 10.321 15.9157 10.1175 15.7657 9.96752C15.6157 9.81749 15.4122 9.7332 15.2 9.7332H14.4V7.3332C14.4 6.06016 13.8943 4.83927 12.9941 3.93909C12.0939 3.03892 10.873 2.5332 9.6 2.5332H6.4C5.12696 2.5332 3.90606 3.03892 3.00589 3.93909C2.10571 4.83927 1.6 6.06016 1.6 7.3332ZM14.3467 9.7332H14.4L14.3238 9.61892L14.3467 9.7332Z" fill="#22C348"/>
<mask id="mask0_4_24" style="mask-type:alpha" maskUnits="userSpaceOnUse" x="4" y="0" width="8" height="7">
<path fill-rule="evenodd" clip-rule="evenodd" d="M6.8667 2.00375V5.26667C6.8667 5.81895 6.41898 6.26667 5.8667 6.26667C5.31441 6.26667 4.8667 5.81895 4.8667 5.26667V1.71111C4.8667 1.09649 5.23225 0.637677 5.62442 0.376229C6.01605 0.115142 6.48866 0 6.93337 0H9.0667C9.5114 0 9.98402 0.115142 10.3756 0.376229C10.7678 0.637677 11.1334 1.09649 11.1334 1.71111V5.26667C11.1334 5.81895 10.6857 6.26667 10.1334 6.26667C9.58108 6.26667 9.13337 5.81895 9.13337 5.26667V2.00375C9.11243 2.00136 9.09009 2 9.0667 2H6.93337C6.90998 2 6.88764 2.00136 6.8667 2.00375Z" fill="white"/>
</mask>
<g mask="url(#mask0_4_24)">
<path fill-rule="evenodd" clip-rule="evenodd" d="M1.6 7.3332V9.7332H0.8C0.587827 9.7332 0.384344 9.81749 0.234315 9.96752C0.0842854 10.1175 0 10.321 0 10.5332V12.1332C0 12.3454 0.0842854 12.5489 0.234315 12.6989C0.384344 12.8489 0.587827 12.9332 0.8 12.9332H15.2C15.4122 12.9332 15.6157 12.8489 15.7657 12.6989C15.9157 12.5489 16 12.3454 16 12.1332V10.5332C16 10.321 15.9157 10.1175 15.7657 9.96752C15.6157 9.81749 15.4122 9.7332 15.2 9.7332H14.4V7.3332C14.4 6.06016 13.8943 4.83927 12.9941 3.93909C12.0939 3.03892 10.873 2.5332 9.6 2.5332H6.4C5.12696 2.5332 3.90606 3.03892 3.00589 3.93909C2.10571 4.83927 1.6 6.06016 1.6 7.3332ZM14.3467 9.7332H14.4L14.3238 9.61892L14.3467 9.7332Z" fill="white"/>
</g>
</g>
<defs>
<clipPath id="clip0_4_24">
<rect width="16" height="13" fill="white"/>
</clipPath>
</defs>
</svg>
