<svg width="17" height="12" viewBox="0 0 17 12" fill="none" xmlns="http://www.w3.org/2000/svg">
<g clip-path="url(#clip0_6_6)">
<path d="M8.49993 5.882L0.50293 1.884C0.532534 1.37444 0.755838 0.895488 1.12711 0.545227C1.49838 0.194965 1.98951 -9.34265e-05 2.49993 3.35697e-08H14.4999C15.0103 -9.34265e-05 15.5015 0.194965 15.8728 0.545227C16.244 0.895488 16.4673 1.37444 16.4969 1.884L8.49993 5.882Z" fill="#5B6871"/>
<path d="M8.5 8.11798L16.5 4.11798V9.99998C16.5 10.5304 16.2893 11.0391 15.9142 11.4142C15.5391 11.7893 15.0304 12 14.5 12H2.5C1.96957 12 1.46086 11.7893 1.08579 11.4142C0.710713 11.0391 0.5 10.5304 0.5 9.99998V4.11798L8.5 8.11798Z" fill="#5B6871"/>
</g>
<defs>
<clipPath id="clip0_6_6">
<rect width="17" height="12" fill="white"/>
</clipPath>
</defs>
</svg>
