<svg width="16" height="16" viewBox="0 0 16 16" fill="none" xmlns="http://www.w3.org/2000/svg">
<g clip-path="url(#clip0_3_4)">
<path fill-rule="evenodd" clip-rule="evenodd" d="M16 1.00044C15.9999 0.830052 15.9563 0.66251 15.8733 0.513715C15.7902 0.36492 15.6706 0.239807 15.5256 0.150248C15.3806 0.0606898 15.2152 0.00965597 15.045 0.00198944C14.8748 -0.00567709 14.7054 0.0302779 14.553 0.106443L6.763 4.00044H3C2.20435 4.00044 1.44129 4.31651 0.87868 4.87912C0.316071 5.44173 0 6.20479 0 7.00044C0 7.79609 0.316071 8.55915 0.87868 9.12176C1.44129 9.68437 2.20435 10.0004 3 10.0004H3.28L5.051 15.3164C5.11735 15.5156 5.24472 15.6889 5.41505 15.8117C5.58538 15.9345 5.79004 16.0005 6 16.0004H7C7.26522 16.0004 7.51957 15.8951 7.70711 15.7076C7.89464 15.52 8 15.2657 8 15.0004V10.6184L14.553 13.8944C14.7054 13.9706 14.8748 14.0066 15.045 13.9989C15.2152 13.9912 15.3806 13.9402 15.5256 13.8506C15.6706 13.7611 15.7902 13.636 15.8733 13.4872C15.9563 13.3384 15.9999 13.1708 16 13.0004V1.00044Z" fill="#84919A"/>
</g>
<defs>
<clipPath id="clip0_3_4">
<rect width="16" height="16" fill="white"/>
</clipPath>
</defs>
</svg>
