<svg width="24" height="24" viewBox="0 0 24 24" fill="none" xmlns="http://www.w3.org/2000/svg">
<path d="M15.586 5.58519C15.7705 5.39417 15.9912 5.2418 16.2352 5.13698C16.4792 5.03216 16.7416 4.97699 17.0072 4.97468C17.2728 4.97238 17.5361 5.02298 17.7819 5.12354C18.0277 5.2241 18.251 5.37261 18.4388 5.5604C18.6266 5.74818 18.7751 5.97148 18.8756 6.21728C18.9762 6.46307 19.0268 6.72643 19.0245 6.99199C19.0222 7.25755 18.967 7.51999 18.8622 7.76399C18.7574 8.008 18.605 8.22869 18.414 8.41319L17.621 9.20619L14.793 6.37819L15.586 5.58519ZM13.379 7.79219L5 16.1712V18.9992H7.828L16.208 10.6202L13.378 7.79219H13.379Z" fill="white"/>
</svg>
