<svg width="6" height="10" viewBox="0 0 6 10" fill="none" xmlns="http://www.w3.org/2000/svg">
<path fill-rule="evenodd" clip-rule="evenodd" d="M0.293034 9.707C0.105564 9.5195 0.000244141 9.2651 0.000244141 9C0.000244141 8.7348 0.105564 8.4805 0.293034 8.293L3.586 5L0.293034 1.70698C0.110874 1.51838 0.0100834 1.26578 0.0123634 1.00358C0.0146334 0.741384 0.119804 0.490574 0.305214 0.305164C0.490624 0.119754 0.741434 0.0145836 1.0036 0.0123136C1.2658 0.0100336 1.5184 0.110824 1.707 0.292984L5.707 4.293C5.8945 4.4805 5.9998 4.7348 5.9998 5C5.9998 5.2651 5.8945 5.5195 5.707 5.707L1.707 9.707C1.5195 9.8945 1.2652 9.9998 1 9.9998C0.734874 9.9998 0.480564 9.8945 0.293034 9.707Z" fill="#252C32"/>
</svg>
