<svg width="6" height="10" viewBox="0 0 6 10" fill="none" xmlns="http://www.w3.org/2000/svg">
<g clip-path="url(#clip0_0_3)">
<path fill-rule="evenodd" clip-rule="evenodd" d="M0.293031 9.70741C0.10556 9.51988 0.000244141 9.26557 0.000244141 9.00041C0.000244141 8.73524 0.10556 8.48094 0.293031 8.29341L3.58603 5.00041L0.293031 1.70741C0.110873 1.5188 0.0100779 1.2662 0.0123563 1.00401C0.0146347 0.741809 0.119804 0.490997 0.305212 0.305589C0.49062 0.120181 0.741433 0.0150115 1.00363 0.0127331C1.26583 0.0104547 1.51843 0.111249 1.70703 0.293408L5.70703 4.29341C5.8945 4.48094 5.99982 4.73524 5.99982 5.00041C5.99982 5.26557 5.8945 5.51988 5.70703 5.70741L1.70703 9.70741C1.5195 9.89488 1.26519 10.0002 1.00003 10.0002C0.734866 10.0002 0.480558 9.89488 0.293031 9.70741Z" fill="#252C32"/>
</g>
<defs>
<clipPath id="clip0_0_3">
<rect width="6" height="10" fill="white"/>
</clipPath>
</defs>
</svg>
